<svg width="224" height="172" viewBox="0 0 224 172" fill="none" xmlns="http://www.w3.org/2000/svg">
<path opacity="0.2" d="M45.551 1H44.8949L44.6337 1.60188L15.9042 67.7991C9.61732 81.3145 5.54552 91.5881 3.72606 98.5848C1.90949 105.57 1 112.561 1 119.555C1 134.802 5.87356 147.234 15.6704 156.755C25.4584 166.267 37.9916 171 53.1837 171C68.3758 171 80.9089 166.267 90.6969 156.755C100.494 147.234 105.367 134.802 105.367 119.555C105.367 109.193 102.937 100.149 98.0391 92.4629C93.5836 84.7243 87.2529 78.8588 79.0728 74.8771L99.9407 2.27625L100.308 1H98.9796H45.551ZM163.184 1H162.528L162.266 1.60188L133.537 67.799C127.25 81.3144 123.178 91.5881 121.359 98.5848C119.542 105.57 118.633 112.561 118.633 119.555C118.633 134.802 123.506 147.234 133.303 156.755C143.091 166.267 155.624 171 170.816 171C186.008 171 198.542 166.267 208.33 156.755C218.126 147.234 223 134.802 223 119.555C223 109.193 220.569 100.148 215.672 92.4627C211.216 84.7243 204.886 78.8588 196.705 74.8771L217.573 2.27625L217.94 1H216.612H163.184Z" stroke="white" stroke-width="2"/>
</svg>
